#tb 0: 1/25
0,          0,          0,        1,  1382400, 0xecfdf606
0,          3,          3,        1,  1382400, 0x7607799b
0,          6,          6,        1,  1382400, 0x67fb98e4
0,          7,          7,        1,  1382400, 0xf2dce07f
0,          8,          8,        1,  1382400, 0x663f991c
0,          9,          9,        1,  1382400, 0x3877aeb0
0,         10,         10,        1,  1382400, 0x73409282
0,         11,         11,        1,  1382400, 0x766c10b1
